<svg width="993" height="126" viewBox="0 0 993 126" fill="none" xmlns="http://www.w3.org/2000/svg">
  <path d="M1.00017 13.2767C140.368 -5.81375 288.351 6.89959 427.949 10.8604C609.923 16.0234 791.753 24.7725 973.72 29.669C979.183 29.816 992.572 27.5802 989.895 32.3437C988.471 34.8759 984.653 34.9281 981.854 35.7053C952.077 43.9735 920.451 48.0172 890.036 51.0687C695.335 70.6029 495.794 64.4844 301.613 41.3579C274.411 38.1182 237.862 35.093 212.086 22.0766C209.362 20.7014 217.999 20.4637 221.034 20.1543C262.181 15.9607 304.305 15.2182 345.564 17.2552C478.556 23.8209 606.067 54.6672 731.46 98.0799C753.89 105.846 785.687 123.29 811.109 123.391" stroke="black" stroke-width="5"/>
</svg>